<svg xmlns="http://www.w3.org/2000/svg" width="256" height="256" viewBox="0 0 64 64">
  <!-- Logo officiel « L'AZ du Clean » — La propreté qui tient parole.
       Couleurs de marque : marine #1F3864 · bleu canard #0E6E8C · or #D9A400.
       Fichier vectoriel : utilisable à toute taille (factures, cartes, flyers, web). -->
  <defs>
    <linearGradient id="az-badge" x1="0" y1="0" x2="1" y2="1">
      <stop offset="0%" stop-color="#16294a"/>
      <stop offset="55%" stop-color="#1f3864"/>
      <stop offset="100%" stop-color="#0e6e8c"/>
    </linearGradient>
  </defs>
  <rect x="1" y="1" width="62" height="62" rx="15" fill="url(#az-badge)"/>
  <rect x="2.25" y="2.25" width="59.5" height="59.5" rx="13.75" fill="none" stroke="#ffffff" stroke-opacity="0.14" stroke-width="1.5"/>
  <path fill="#ffffff" fill-rule="evenodd" d="M11 46 L19.6 18 H26.4 L35 46 H28.4 L26.8 40.2 H19.2 L17.6 46 Z M20.9 34.6 L23 26.4 L25.1 34.6 Z"/>
  <path fill="#ffffff" d="M37 18 H54.6 V23.4 L44.6 40.6 H54.6 V46 H37 V40.6 L47 23.4 H37 Z"/>
  <path fill="#d9a400" d="M50.5 6.5 L52.4 11.1 L57 13 L52.4 14.9 L50.5 19.5 L48.6 14.9 L44 13 L48.6 11.1 Z"/>
  <circle cx="58.4" cy="7.6" r="1.5" fill="#d9a400" opacity="0.85"/>
  <path d="M11 52.5 C 24 57.5, 40 57.5, 53 51" fill="none" stroke="#d9a400" stroke-width="3" stroke-linecap="round"/>
</svg>
